<?xml version="1.0" encoding="utf-8"?>
<!-- Generator: Adobe Illustrator 22.1.0, SVG Export Plug-In . SVG Version: 6.00 Build 0)  -->
<svg version="1.1" id="Layer_1" xmlns="http://www.w3.org/2000/svg" xmlns:xlink="http://www.w3.org/1999/xlink" x="0px" y="0px"
	 viewBox="0 0 700 305" style="enable-background:new 0 0 700 305;" xml:space="preserve">
<style type="text/css">
	.st0{fill:#333333;}
	.st1{fill:#2383D9;}
	.st2{fill:#2E95E6;}
</style>
<g>
	<g>
		<path class="st0" d="M273.8,108.7c-0.8,6.9-3.4,12.3-7.7,16c-4.3,3.8-10,5.6-17.1,5.6c-7.7,0-13.9-2.8-18.6-8.3
			c-4.7-5.5-7-12.9-7-22.2v-6.3c0-6.1,1.1-11.4,3.3-16c2.2-4.6,5.2-8.2,9.2-10.6c4-2.5,8.6-3.7,13.8-3.7c6.9,0,12.5,1.9,16.7,5.8
			c4.2,3.9,6.6,9.2,7.3,16.1h-8.7c-0.7-5.2-2.4-9-4.9-11.4c-2.5-2.3-6-3.5-10.5-3.5c-5.5,0-9.8,2-13,6.1c-3.1,4.1-4.7,9.9-4.7,17.4
			v6.3c0,7.1,1.5,12.8,4.4,16.9c3,4.2,7.1,6.3,12.4,6.3c4.8,0,8.5-1.1,11-3.3c2.6-2.2,4.3-6,5.1-11.3H273.8z"/>
		<path class="st0" d="M335.9,98.9c0,6.4-1.1,12-3.2,16.8c-2.2,4.8-5.2,8.4-9.2,10.9c-4,2.5-8.6,3.8-13.8,3.8
			c-5.1,0-9.7-1.3-13.7-3.8c-4-2.5-7.1-6.1-9.3-10.8c-2.2-4.7-3.3-10.1-3.4-16.3v-4.7c0-6.3,1.1-11.8,3.3-16.7
			c2.2-4.8,5.3-8.5,9.3-11.1c4-2.6,8.6-3.8,13.7-3.8c5.2,0,9.9,1.3,13.9,3.8c4,2.5,7.1,6.2,9.2,11c2.2,4.8,3.2,10.4,3.2,16.8V98.9z
			 M327.3,94.6c0-7.8-1.6-13.7-4.7-17.9c-3.1-4.1-7.5-6.2-13.1-6.2c-5.4,0-9.7,2.1-12.9,6.2c-3.1,4.1-4.7,9.9-4.8,17.3v4.8
			c0,7.5,1.6,13.4,4.7,17.7c3.2,4.3,7.5,6.4,13,6.4c5.6,0,9.9-2,12.9-6.1c3.1-4.1,4.6-9.9,4.7-17.4V94.6z"/>
		<path class="st0" d="M369.5,118l18.7-53.9h9.4l-24.2,65.4h-7.6l-24.2-65.4h9.4L369.5,118z"/>
		<path class="st0" d="M415.6,129.5H407V64.1h8.6V129.5z"/>
		<path class="st0" d="M431.3,129.5V64.1h18.5c5.7,0,10.7,1.3,15.1,3.8c4.4,2.5,7.7,6.1,10.1,10.7s3.6,10,3.6,16v4.2
			c0,6.2-1.2,11.6-3.6,16.2c-2.4,4.6-5.8,8.2-10.2,10.7c-4.4,2.5-9.6,3.8-15.4,3.8H431.3z M440,71.1v51.3h9.1
			c6.6,0,11.8-2.1,15.5-6.2c3.7-4.1,5.5-10,5.5-17.7v-3.8c0-7.4-1.7-13.2-5.2-17.3c-3.5-4.1-8.4-6.2-14.8-6.3H440z"/>
		<path class="st0" d="M530.4,105.1h-21.9v-6.8h21.9V105.1z"/>
		<path class="st0" d="M564.9,129.5h-8.4V74.1l-16.8,6.2v-7.5l23.8-8.9h1.3V129.5z"/>
		<path class="st0" d="M621.1,100.7c-1.7,2.1-3.8,3.7-6.2,5s-5.1,1.9-7.9,1.9c-3.8,0-7.1-0.9-9.9-2.8c-2.8-1.9-5-4.5-6.5-7.8
			c-1.5-3.4-2.3-7.1-2.3-11.2c0-4.4,0.8-8.3,2.5-11.8c1.7-3.5,4-6.2,7.1-8c3.1-1.9,6.6-2.8,10.7-2.8c6.5,0,11.6,2.4,15.3,7.3
			c3.7,4.8,5.6,11.4,5.6,19.8v2.4c0,12.7-2.5,22-7.5,27.9c-5,5.9-12.6,8.9-22.8,9h-1.6v-7.1h1.8c6.9-0.1,12.1-1.9,15.8-5.4
			C618.8,113.6,620.8,108.2,621.1,100.7z M608.3,100.7c2.8,0,5.4-0.9,7.7-2.6c2.3-1.7,4.1-3.8,5.1-6.3v-3.3c0-5.4-1.2-9.9-3.5-13.3
			c-2.4-3.4-5.4-5.1-9-5.1c-3.7,0-6.6,1.4-8.8,4.2c-2.2,2.8-3.3,6.5-3.3,11.1c0,4.5,1.1,8.1,3.2,11
			C601.9,99.3,604.7,100.7,608.3,100.7z"/>
		<path class="st0" d="M254.7,199.3h-13.1v29.1h-16.4v-79.6h29.6c9.4,0,16.7,2.1,21.8,6.3c5.1,4.2,7.7,10.1,7.7,17.8
			c0,5.4-1.2,10-3.5,13.6c-2.4,3.6-5.9,6.5-10.7,8.7l17.2,32.5v0.8h-17.6L254.7,199.3z M241.6,186h13.2c4.1,0,7.3-1,9.6-3.1
			c2.3-2.1,3.4-5,3.4-8.7c0-3.8-1.1-6.7-3.2-8.9c-2.1-2.2-5.4-3.2-9.8-3.2h-13.2V186z"/>
		<path class="st0" d="M322.9,229.5c-8.7,0-15.7-2.7-21.2-8c-5.5-5.3-8.2-12.4-8.2-21.3v-1.5c0-5.9,1.1-11.3,3.4-15.9
			c2.3-4.7,5.6-8.3,9.8-10.8c4.2-2.5,9-3.8,14.4-3.8c8.1,0,14.5,2.6,19.1,7.7c4.6,5.1,7,12.3,7,21.7v6.5h-37.7
			c0.5,3.9,2.1,7,4.6,9.3c2.6,2.3,5.8,3.5,9.8,3.5c6.1,0,10.8-2.2,14.3-6.6l7.8,8.7c-2.4,3.4-5.6,6-9.6,7.8S327.8,229.5,322.9,229.5
			z M321.1,180.9c-3.1,0-5.7,1.1-7.6,3.2c-2,2.1-3.2,5.2-3.7,9.1h22V192c-0.1-3.5-1-6.2-2.8-8.2C327,181.9,324.4,180.9,321.1,180.9z
			"/>
		<path class="st0" d="M388.3,212.1c0-1.9-1-3.5-2.9-4.6c-1.9-1.1-5-2.1-9.2-3c-14.1-3-21.1-8.9-21.1-17.9c0-5.2,2.2-9.6,6.5-13.2
			c4.4-3.5,10.1-5.3,17.1-5.3c7.5,0,13.5,1.8,18,5.3c4.5,3.5,6.8,8.1,6.8,13.8h-15.8c0-2.3-0.7-4.1-2.2-5.6
			c-1.5-1.5-3.7-2.2-6.8-2.2c-2.7,0-4.7,0.6-6.2,1.8c-1.5,1.2-2.2,2.7-2.2,4.6c0,1.8,0.8,3.2,2.5,4.2c1.7,1.1,4.5,2,8.4,2.8
			c3.9,0.8,7.3,1.7,10,2.7c8.3,3.1,12.5,8.4,12.5,15.9c0,5.4-2.3,9.8-6.9,13.1c-4.6,3.3-10.6,5-17.9,5c-5,0-9.4-0.9-13.2-2.7
			c-3.8-1.8-6.9-4.2-9.1-7.3c-2.2-3.1-3.3-6.4-3.3-10h15c0.1,2.8,1.2,5,3.1,6.5c1.9,1.5,4.5,2.2,7.8,2.2c3,0,5.3-0.6,6.9-1.7
			C387.5,215.5,388.3,214,388.3,212.1z"/>
		<path class="st0" d="M438.4,216.8c2.9,0,5.3-0.8,7.1-2.4c1.8-1.6,2.8-3.7,2.8-6.4h14.8c0,4-1.1,7.7-3.3,11
			c-2.2,3.3-5.1,5.9-8.8,7.8c-3.7,1.8-7.9,2.8-12.4,2.8c-8.5,0-15.1-2.7-20-8.1c-4.9-5.4-7.3-12.8-7.3-22.3v-1
			c0-9.1,2.4-16.4,7.3-21.8c4.8-5.4,11.5-8.1,20-8.1c7.4,0,13.3,2.1,17.8,6.3c4.5,4.2,6.7,9.8,6.8,16.8h-14.8
			c-0.1-3.1-1-5.6-2.8-7.5c-1.8-1.9-4.2-2.9-7.2-2.9c-3.7,0-6.5,1.3-8.3,4c-1.9,2.7-2.8,7-2.8,13.1v1.6c0,6.1,0.9,10.5,2.8,13.1
			C431.8,215.5,434.6,216.8,438.4,216.8z"/>
		<path class="st0" d="M507.6,222.4c-3.9,4.7-9.3,7.1-16.2,7.1c-6.3,0-11.2-1.8-14.5-5.5c-3.3-3.6-5-9-5.1-16v-38.8h15.8v38.3
			c0,6.2,2.8,9.3,8.4,9.3c5.4,0,9-1.9,11-5.6v-41.9h15.9v59.2h-14.9L507.6,222.4z"/>
		<path class="st0" d="M562.1,229.5c-8.7,0-15.7-2.7-21.2-8c-5.5-5.3-8.2-12.4-8.2-21.3v-1.5c0-5.9,1.1-11.3,3.4-15.9
			c2.3-4.7,5.6-8.3,9.8-10.8c4.2-2.5,9-3.8,14.4-3.8c8.1,0,14.5,2.6,19.1,7.7c4.6,5.1,7,12.3,7,21.7v6.5h-37.7
			c0.5,3.9,2.1,7,4.6,9.3c2.6,2.3,5.8,3.5,9.8,3.5c6.1,0,10.8-2.2,14.3-6.6l7.8,8.7c-2.4,3.4-5.6,6-9.6,7.8S567,229.5,562.1,229.5z
			 M560.3,180.9c-3.1,0-5.7,1.1-7.6,3.2c-2,2.1-3.2,5.2-3.7,9.1h22V192c-0.1-3.5-1-6.2-2.8-8.2C566.2,181.9,563.7,180.9,560.3,180.9
			z"/>
		<path class="st0" d="M628.7,184.1c-2.2-0.3-4-0.4-5.7-0.4c-6,0-9.9,2-11.8,6.1v38.7h-15.8v-59.2h14.9l0.4,7.1
			c3.2-5.4,7.6-8.1,13.2-8.1c1.8,0,3.4,0.2,4.9,0.7L628.7,184.1z"/>
	</g>
</g>
<path class="st1" d="M142.5,99.8h-22.1V77.7c0-2.2-1.8-4-4-4h-14.7c-2.2,0-4,1.8-4,4v22.1H75.7c-2.2,0-4,1.8-4,4v14.7
	c0,2.2,1.8,4,4,4h22.1v22.1c0,2.2,1.8,4,4,4h14.7c2.2,0,4-1.8,4-4v-22.1h22.1c2.2,0,4-1.8,4-4v-14.7
	C146.5,101.6,144.7,99.8,142.5,99.8z"/>
<g>
	<path class="st2" d="M109.1,25C61.6,25,23,63.7,23,111.1c0,58.9,77,145.4,80.3,149.1c3.1,3.4,8.5,3.4,11.5,0
		c3.3-3.7,80.3-90.1,80.3-149.1C195.2,63.7,156.6,25,109.1,25z M112.6,209.7l-0.9,0.5l-1,0.3l-1,0.1h-8.7l-3.3,16.6l-0.3,1l-0.5,0.9
		l-0.6,0.8l-0.7,0.6l-0.8,0.5l-1,0.3l-1,0.1l-1.1-0.1l-1-0.4l-0.9-0.6l-0.8-0.8l-0.6-0.9l-0.4-1l-0.2-1.1l0.1-1.2l2.9-14.6h-4.3
		l-1.2-0.1l-1-0.4l-0.9-0.6l-0.7-0.8l-0.6-0.9l-0.4-1.1l0-0.4v-1.9l0-0.2l0.3-1l0.5-0.9l0.6-0.7l0.8-0.6l0.9-0.4l0.9-0.3l1-0.1h6.4
		l3.4-16.9l0.3-1l0.5-0.9l0.6-0.7l0.8-0.6l0.8-0.5l1-0.3l1-0.1l1.2,0.1l1.1,0.4l0.9,0.6l0.8,0.8l0.6,0.9l0.4,1l0.2,1.2l-0.1,1.1
		l-3,14.9h6.6l1.2,0.1l1.1,0.4l0.9,0.6l0.8,0.7l0.6,0.9l0.3,1l0.2,1.1l-0.1,1.2v0.2l-0.3,1l-0.5,0.9l-0.6,0.7L112.6,209.7z
		 M123.5,228.2l-0.4,0.9l-0.6,0.8l-0.8,0.6l-0.8,0.5l-0.9,0.3l-1,0.1l-1.2-0.1l-1.1-0.4l-0.9-0.6l-0.8-0.8l-0.5-0.9l-0.4-1l-0.1-1.1
		l0.1-1.2l5.7-28.8l0.3-1l0.5-0.9l0.6-0.8l0.8-0.6l0.9-0.5l0.9-0.3l1-0.1l1.2,0.1l1,0.4l0.9,0.6l0.7,0.8l0.6,0.9l0.4,1l0.1,1.1
		l-0.1,1.2l-5.7,28.8L123.5,228.2z M121.8,184.4l0.1-1.2l0.4-1.1l0.6-1l0.8-0.8l1-0.6l1.1-0.4l1.2-0.1l1.2,0.1l1.1,0.4l0.9,0.6
		l0.8,0.8l0.6,1l0.4,1.1l0.1,1.2l-0.1,1.2l-0.4,1.2l-0.6,0.9l-0.8,0.8l-0.9,0.6l-1.1,0.4l-1.2,0.1l-1.2-0.1l-1.1-0.4l-1-0.6
		l-0.8-0.8l-0.6-0.9l-0.4-1.2L121.8,184.4z M136.7,227.3l-0.3,1.1l-0.6,0.9l-0.8,0.8l-0.9,0.6l-1.1,0.4l-1.2,0.1l-1.2-0.1l-1-0.4
		l-1-0.6l-0.8-0.8l-0.6-0.9l-0.4-1.1l-0.1-1.2l0.1-1.2l0.4-1.1l0.6-1l0.8-0.8l1-0.6l1-0.4l1.2-0.1l1.2,0.1l1.1,0.4l0.9,0.6l0.8,0.8
		l0.6,1l0.3,1.1l0.1,1.2L136.7,227.3z M109.1,170.8c-32.9,0-59.7-26.8-59.7-59.7s26.8-59.7,59.7-59.7c32.9,0,59.7,26.8,59.7,59.7
		C168.8,144,142,170.8,109.1,170.8z"/>
</g>
</svg>
