<svg id="Layer_1" data-name="Layer 1" xmlns="http://www.w3.org/2000/svg" viewBox="0 0 145 145"><defs><style>.cls-1{fill:#3a3a3a;}.cls-2{fill:#f6bc9c;}</style></defs><title>icon-covid</title><path id="_Path_" data-name="&lt;Path&gt;" class="cls-1" d="M104.57,93.69a2.1,2.1,0,0,0-.62,1.5,2.12,2.12,0,0,0,2.12,2.13,2.17,2.17,0,0,0,1.51-.62,2.14,2.14,0,0,0,.62-1.51,2.1,2.1,0,0,0-.62-1.5,2.15,2.15,0,0,0-1.51-.63A2.13,2.13,0,0,0,104.57,93.69Z"/><path id="_Path_2" data-name="&lt;Path&gt;" class="cls-1" d="M32.69,34.1a2.15,2.15,0,0,0,1.51.62,2.13,2.13,0,0,0,1.5-3.63l-10-10a2.13,2.13,0,1,0-3,3Z"/><path id="_Path_3" data-name="&lt;Path&gt;" class="cls-1" d="M44.29,28.31a2.12,2.12,0,0,0,2.12-2.13V18.83a2.13,2.13,0,1,0-4.25,0v7.35A2.13,2.13,0,0,0,44.29,28.31Z"/><path id="_Path_4" data-name="&lt;Path&gt;" class="cls-1" d="M20.44,44.81h7.35a2.13,2.13,0,0,0,0-4.26H20.44a2.13,2.13,0,0,0,0,4.26Z"/><path id="_Path_5" data-name="&lt;Path&gt;" class="cls-1" d="M111.44,34.72a2.13,2.13,0,0,0,1.5-.62l10-10a2.13,2.13,0,1,0-3-3l-10,10a2.13,2.13,0,0,0,1.51,3.63Z"/><path id="_Path_6" data-name="&lt;Path&gt;" class="cls-1" d="M101.35,28.31a2.13,2.13,0,0,0,2.13-2.13V18.83a2.13,2.13,0,0,0-4.26,0v7.35A2.13,2.13,0,0,0,101.35,28.31Z"/><path id="_Path_7" data-name="&lt;Path&gt;" class="cls-1" d="M115.72,42.68a2.14,2.14,0,0,0,2.13,2.13h7.35a2.13,2.13,0,0,0,0-4.26h-7.35A2.13,2.13,0,0,0,115.72,42.68Z"/><path class="cls-2" d="M70.48,85.55a29.68,29.68,0,0,0,21.1-8.74l17.6-17.6A3,3,0,0,0,105,55l-7.14,7.14a2.12,2.12,0,0,1-1.51.63,2.1,2.1,0,0,1-1.5-.63,2.13,2.13,0,0,1,0-3L102,52a3,3,0,1,0-4.21-4.21L90.6,54.92a2.11,2.11,0,0,1-1.51.62,2.09,2.09,0,0,1-1.5-.62,2.11,2.11,0,0,1,0-3l7.14-7.15a3,3,0,0,0-4.21-4.21l-4.68,4.68a2.13,2.13,0,0,1-3-3l4.68-4.68a3,3,0,0,0-4.21-4.21l-7.47,7.46.51.51a7.24,7.24,0,0,1-5.11,12.35A7.24,7.24,0,0,1,64,60.87a7.22,7.22,0,0,1-7.22,7.22,7.25,7.25,0,0,1-2.12,5.11,7.08,7.08,0,0,1-2.56,1.65L64.44,87.18A11.91,11.91,0,0,1,70.48,85.55Z"/><rect class="cls-2" x="47.87" y="73.91" width="6.65" height="21.51" transform="translate(-44.87 61) rotate(-45)"/><path class="cls-2" d="M38.23,82.42,22,98.65a2,2,0,0,1-.74.48l8.5,22.18L53.43,97.62Z"/><path class="cls-2" d="M123.69,95.25l-7.33-7.33-2,2a2.13,2.13,0,0,1-3-3l2-2-4.7-4.7L91.09,97.76l4.7,4.71,2-2a2.13,2.13,0,0,1,3,3l-2,2,15.93,15.93,9.72-25.67A2.15,2.15,0,0,1,123.69,95.25Z"/><path class="cls-2" d="M84,92.09a2.14,2.14,0,0,1,2,.56l2.1,2.1,18.59-18.59a19.15,19.15,0,0,0-1.46-7L94.59,79.82a33.82,33.82,0,0,1-21.2,9.86l1.16.76A12,12,0,0,0,84,92.09Z"/><path class="cls-2" d="M65.66,36.64a3,3,0,0,0-4.21,0,3,3,0,0,0,0,4.21l7.66,7.67h0a3,3,0,0,0,4.21,0,3,3,0,0,0,0-4.21Z"/><path class="cls-2" d="M56.33,43a3,3,0,0,0-2.11,5.08l7.67,7.67h0a3,3,0,0,0,4.21,0,3,3,0,0,0,0-4.21l-7.67-7.67A3,3,0,0,0,56.33,43Z"/><path class="cls-2" d="M49.11,50.21a2.93,2.93,0,0,0-2.11.88,3,3,0,0,0,0,4.21L54.67,63a3,3,0,1,0,4.21-4.22l-7.67-7.66A2.93,2.93,0,0,0,49.11,50.21Z"/><path class="cls-2" d="M42.93,61.46a3,3,0,0,0,0,4.21l4.52,4.52h0A3,3,0,0,0,51.66,66l-4.53-4.52a3,3,0,0,0-4.2,0Z"/><path id="_Compound_Path_" data-name="&lt;Compound Path&gt;" class="cls-1" d="M110.93,76.47A23.45,23.45,0,0,0,108.42,66l3.77-3.76a7.24,7.24,0,0,0-5.11-12.35,7.22,7.22,0,0,0-7.22-7.22,7.24,7.24,0,0,0-7.22-7.23,7.23,7.23,0,0,0-12.35-5.1l-7.47,7.46-4.15-4.15a7.24,7.24,0,0,0-12.36,5.11A7.22,7.22,0,0,0,49.09,46,7.16,7.16,0,0,0,44,48.07a7.25,7.25,0,0,0-1.22,8.62,7.24,7.24,0,0,0-2.86,12l3,3L19,95.64a2.14,2.14,0,0,0,1.51,3.64,2.1,2.1,0,0,0,1.5-.63L38.23,82.42l15.2,15.2L29.08,122a2.13,2.13,0,1,0,3,3L65,92.07a7.9,7.9,0,0,1,2-1.47L72.2,94a16.37,16.37,0,0,0,11.57,2.47L112.4,125.1a2.11,2.11,0,0,0,1.51.62,2.09,2.09,0,0,0,1.5-.62,2.11,2.11,0,0,0,0-3L98.8,105.48l2-2a2.13,2.13,0,0,0-3-3l-2,2-4.7-4.71,17.56-17.55,4.7,4.7-2,2a2.13,2.13,0,1,0,3,3l2-2,7.33,7.33a2.13,2.13,0,0,0,3-3ZM83.3,33.33a3,3,0,0,1,4.21,4.21l-4.68,4.68a2.13,2.13,0,0,0,3,3l4.68-4.68a3,3,0,0,1,4.21,4.21l-7.14,7.15a2.11,2.11,0,0,0,0,3,2.09,2.09,0,0,0,1.5.62,2.11,2.11,0,0,0,1.51-.62l7.14-7.14A3,3,0,1,1,102,52l-7.14,7.14a2.13,2.13,0,0,0,0,3,2.1,2.1,0,0,0,1.5.63,2.12,2.12,0,0,0,1.51-.63L105,55a3,3,0,0,1,4.22,4.21l-17.6,17.6a29.68,29.68,0,0,1-21.1,8.74,11.91,11.91,0,0,0-6,1.63L52.11,74.85a7.08,7.08,0,0,0,2.56-1.65,7.25,7.25,0,0,0,2.12-5.11A7.22,7.22,0,0,0,64,60.87a7.24,7.24,0,0,0,7.22-7.22A7.24,7.24,0,0,0,76.34,41.3l-.51-.51ZM61.45,36.64a3,3,0,0,1,4.21,0l7.66,7.67a3,3,0,0,1,0,4.21,3,3,0,0,1-4.21,0h0l-7.66-7.67a3,3,0,0,1,0-4.21Zm-7.23,7.22a3,3,0,0,1,4.21,0l7.67,7.67a3,3,0,0,1,0,4.21,3,3,0,0,1-4.21,0h0l-7.67-7.67a3,3,0,0,1,0-4.21ZM47,51.09a3,3,0,0,1,4.21,0l7.67,7.66A3,3,0,1,1,54.67,63L47,55.3a3,3,0,0,1,0-4.21ZM42.93,61.46a3,3,0,0,1,4.2,0L51.66,66a3,3,0,0,1-4.21,4.21h0l-4.52-4.52a3,3,0,0,1,0-4.21ZM41.24,79.41l4.7-4.7,15.21,15.2-4.71,4.7ZM86,92.65a2.14,2.14,0,0,0-2-.56,12,12,0,0,1-9.42-1.65l-1.16-.76a33.82,33.82,0,0,0,21.2-9.86l10.62-10.63a19.15,19.15,0,0,1,1.46,7L88.08,94.75Z"/></svg>