<svg id="Layer_1" data-name="Layer 1" xmlns="http://www.w3.org/2000/svg" viewBox="0 0 145 145"><defs><style>.cls-1{fill:none;}.cls-2{fill:#fff;}.cls-3{fill:#c3f2f9;}.cls-4{fill:#3a3a3a;}.cls-5{fill:#cbcbcb;}.cls-6{fill:#dcdcdc;}.cls-7{fill:#e74d3b;}</style></defs><title>icon-covid</title><rect class="cls-1" x="30.23" y="23.49" width="84.54" height="116.43" rx="3.62" ry="3.62"/><rect class="cls-2" x="30.23" y="23.49" width="84.54" height="116.43" rx="3.62" ry="3.62"/><rect class="cls-3" x="90.49" y="51.82" width="16.38" height="16.38" rx="2.12" ry="2.12"/><path class="cls-4" d="M104.74,71.2H92.61a5.13,5.13,0,0,1-5.12-5.12V53.94a5.13,5.13,0,0,1,5.12-5.12h12.13a5.13,5.13,0,0,1,5.13,5.12V66.08A5.13,5.13,0,0,1,104.74,71.2ZM92.61,51.82a2.12,2.12,0,0,0-2.12,2.12V66.08a2.12,2.12,0,0,0,2.12,2.12h12.13a2.13,2.13,0,0,0,2.13-2.12V53.94a2.13,2.13,0,0,0-2.13-2.12Z"/><rect class="cls-3" x="38.13" y="77.6" width="16.38" height="16.38" rx="2.12" ry="2.12"/><path class="cls-4" d="M52.39,97H40.26a5.13,5.13,0,0,1-5.13-5.12V79.73a5.13,5.13,0,0,1,5.13-5.13H52.39a5.13,5.13,0,0,1,5.12,5.13V91.86A5.13,5.13,0,0,1,52.39,97ZM40.26,77.6a2.14,2.14,0,0,0-2.13,2.13V91.86A2.13,2.13,0,0,0,40.26,94H52.39a2.12,2.12,0,0,0,2.12-2.12V79.73a2.13,2.13,0,0,0-2.12-2.13Z"/><rect class="cls-3" x="90.49" y="77.6" width="16.38" height="16.38" rx="2.12" ry="2.12"/><rect class="cls-3" x="64.31" y="77.6" width="16.38" height="16.38" rx="2.12" ry="2.12"/><rect class="cls-3" x="38.13" y="51.82" width="16.38" height="16.38" rx="2.12" ry="2.12"/><path class="cls-4" d="M52.39,71.2H40.26a5.13,5.13,0,0,1-5.13-5.12V53.94a5.13,5.13,0,0,1,5.13-5.12H52.39a5.13,5.13,0,0,1,5.12,5.12V66.08A5.13,5.13,0,0,1,52.39,71.2ZM40.26,51.82a2.13,2.13,0,0,0-2.13,2.12V66.08a2.13,2.13,0,0,0,2.13,2.12H52.39a2.12,2.12,0,0,0,2.12-2.12V53.94a2.12,2.12,0,0,0-2.12-2.12Z"/><rect class="cls-3" x="64.31" y="51.82" width="16.38" height="16.38" rx="2.12" ry="2.12"/><path class="cls-4" d="M78.57,71.2H66.43a5.13,5.13,0,0,1-5.12-5.12V53.94a5.13,5.13,0,0,1,5.12-5.12H78.57a5.13,5.13,0,0,1,5.12,5.12V66.08A5.13,5.13,0,0,1,78.57,71.2ZM66.43,51.82a2.12,2.12,0,0,0-2.12,2.12V66.08a2.12,2.12,0,0,0,2.12,2.12H78.57a2.12,2.12,0,0,0,2.12-2.12V53.94a2.12,2.12,0,0,0-2.12-2.12Z"/><path class="cls-4" d="M104.74,97H92.61a5.13,5.13,0,0,1-5.12-5.12V79.73a5.13,5.13,0,0,1,5.12-5.13h12.13a5.13,5.13,0,0,1,5.13,5.13V91.86A5.13,5.13,0,0,1,104.74,97ZM92.61,77.6a2.13,2.13,0,0,0-2.12,2.13V91.86A2.12,2.12,0,0,0,92.61,94h12.13a2.13,2.13,0,0,0,2.13-2.12V79.73a2.14,2.14,0,0,0-2.13-2.13Z"/><path class="cls-4" d="M78.57,97H66.43a5.13,5.13,0,0,1-5.12-5.12V79.73a5.13,5.13,0,0,1,5.12-5.13H78.57a5.13,5.13,0,0,1,5.12,5.13V91.86A5.13,5.13,0,0,1,78.57,97ZM66.43,77.6a2.13,2.13,0,0,0-2.12,2.13V91.86A2.12,2.12,0,0,0,66.43,94H78.57a2.12,2.12,0,0,0,2.12-2.12V79.73a2.13,2.13,0,0,0-2.12-2.13Z"/><rect class="cls-3" x="38.13" y="103.38" width="16.38" height="16.38" rx="2.12" ry="2.12"/><path class="cls-4" d="M52.39,122.76H40.26a5.13,5.13,0,0,1-5.13-5.12V105.51a5.13,5.13,0,0,1,5.13-5.13H52.39a5.13,5.13,0,0,1,5.12,5.13v12.13A5.13,5.13,0,0,1,52.39,122.76ZM40.26,103.38a2.14,2.14,0,0,0-2.13,2.13v12.13a2.13,2.13,0,0,0,2.13,2.12H52.39a2.12,2.12,0,0,0,2.12-2.12V105.51a2.13,2.13,0,0,0-2.12-2.13Z"/><rect class="cls-3" x="90.49" y="103.38" width="16.38" height="16.38" rx="2.12" ry="2.12"/><path class="cls-4" d="M104.74,122.76H92.61a5.13,5.13,0,0,1-5.12-5.12V105.51a5.13,5.13,0,0,1,5.12-5.13h12.13a5.13,5.13,0,0,1,5.13,5.13v12.13A5.13,5.13,0,0,1,104.74,122.76ZM92.61,103.38a2.13,2.13,0,0,0-2.12,2.13v12.13a2.12,2.12,0,0,0,2.12,2.12h12.13a2.13,2.13,0,0,0,2.13-2.12V105.51a2.14,2.14,0,0,0-2.13-2.13Z"/><rect class="cls-5" x="64.31" y="103.38" width="16.38" height="29.06" rx="2.12" ry="2.12"/><path class="cls-4" d="M78.57,135.44H66.43a5.13,5.13,0,0,1-5.12-5.12V105.51a5.13,5.13,0,0,1,5.12-5.13H78.57a5.13,5.13,0,0,1,5.12,5.13v24.81A5.13,5.13,0,0,1,78.57,135.44ZM66.43,103.38a2.13,2.13,0,0,0-2.12,2.13v24.81a2.12,2.12,0,0,0,2.12,2.12H78.57a2.12,2.12,0,0,0,2.12-2.12V105.51a2.13,2.13,0,0,0-2.12-2.13Z"/><path class="cls-6" d="M114.77,27.11a3.63,3.63,0,0,0-3.62-3.62H33.85a3.63,3.63,0,0,0-3.62,3.62v6.37h84.54Z"/><path class="cls-4" d="M111.15,20.49H33.85a6.63,6.63,0,0,0-6.62,6.62V136.3a6.63,6.63,0,0,0,6.62,6.63h77.3a6.63,6.63,0,0,0,6.62-6.63V27.11A6.63,6.63,0,0,0,111.15,20.49Zm-77.3,3h77.3a3.63,3.63,0,0,1,3.62,3.62v6.37H30.23V27.11A3.63,3.63,0,0,1,33.85,23.49Zm77.3,116.44H33.85a3.63,3.63,0,0,1-3.62-3.63V36.48h84.54V136.3A3.63,3.63,0,0,1,111.15,139.93Z"/><path class="cls-7" d="M72.5,5.07A18.42,18.42,0,1,0,90.92,23.49,18.44,18.44,0,0,0,72.5,5.07Z"/><path class="cls-4" d="M72.5,44.91A21.42,21.42,0,1,1,93.92,23.49,21.45,21.45,0,0,1,72.5,44.91Zm0-39.84A18.42,18.42,0,1,0,90.92,23.49,18.44,18.44,0,0,0,72.5,5.07Z"/><polygon class="cls-2" points="82.19 20.55 75.44 20.55 75.44 13.8 69.56 13.8 69.56 20.55 62.81 20.55 62.81 26.43 69.56 26.43 69.56 33.18 75.44 33.18 75.44 26.43 82.19 26.43 82.19 20.55"/></svg>