<svg id="Layer_1" data-name="Layer 1" xmlns="http://www.w3.org/2000/svg" viewBox="0 0 145 145"><defs><style>.cls-1{fill:#dcdcdc;stroke:#3a3a3a;stroke-linecap:round;stroke-linejoin:round;stroke-width:4px;}</style></defs><title>icon-covid</title><path class="cls-1" d="M138.82,82.18c-4.08-1.94-13.95,1.95-15.15,6.58-1.72,6.77-6.86,7.06-12.25,8s-10,.07-13.25-4.63c-5.11-7.46-9.19-15.2-5.4-24.71.72-1.83,2.36-5.26-.47-5.82C84,60,82.74,52.31,78.8,47c-2.56-3.45-6-5.93-9.53-3.38-5.41,3.84-6.65.42-9.27-3.21-3.53-4.93-8.29-9.86-15-6.67-6.1,2.89-11.41,1.53-17.23.09-6.06-1.5-11.3-5.41-17.81-5.53-5.44-.09-7.33,2-3.88,6.52,6.34,8.36,7.46,20.34,18,25.86a4.14,4.14,0,0,1,2,3c.05,8.3,8.12,7.94,11.1,13l1.75-1.59Q31.25,62.16,23.57,49.22l.67.08.43-.52C37.86,56.29,45.14,69.56,55.1,80.2c.81.85,1.68,2.49,1.39,3.4C53.06,94,62,95.61,67.64,98.82c6.79,3.88,14.37,6.37,21.54,9.56,2.95,1.3,6.5,3,9.11,1.61,7.76-4.24,12.31.69,18.6,6.69-2.58-8,12.35-6.54,3.14-17,13.65,3.55,17.09-4.36,20.15-13C140.94,84.61,141,83.24,138.82,82.18Z"/></svg>